<svg width="27" height="20" viewBox="0 0 27 20" fill="none" xmlns="http://www.w3.org/2000/svg">
<path d="M22.8637 2.70791C20.5773 0.892874 16.9603 0.585823 16.8066 0.572783C16.5652 0.552629 16.3358 0.687778 16.2374 0.905914C16.2302 0.920141 16.1509 1.09915 16.0633 1.37775C17.5751 1.62908 19.4329 2.13649 21.114 3.16671C21.383 3.33149 21.4659 3.68122 21.299 3.94796C21.1909 4.12105 21.0024 4.21589 20.8102 4.21589C20.707 4.21589 20.6025 4.18863 20.5076 4.13054C17.6184 2.36174 14.0086 2.27282 13.3145 2.27282C12.6204 2.27282 9.00944 2.36174 6.12258 4.13054C5.85239 4.29651 5.49934 4.21352 5.33122 3.94796C5.1631 3.68122 5.24716 3.33268 5.51615 3.16671C7.19735 2.13767 9.05387 1.62908 10.5669 1.37775C10.4781 1.09797 10.3988 0.920141 10.3928 0.905914C10.2932 0.687778 10.065 0.550258 9.82242 0.573968C9.66991 0.585823 6.05293 0.892873 3.73528 2.73399C2.52482 3.83771 0.105103 10.2964 0.105103 15.8803C0.105103 15.9786 0.131521 16.0759 0.180756 16.1612C1.85114 19.0575 6.40719 19.8162 7.44592 19.8494C7.45193 19.8494 7.45793 19.8494 7.46394 19.8494C7.64767 19.8494 7.82059 19.7628 7.92867 19.6158L8.97942 18.1908C6.1466 17.4677 4.69957 16.2406 4.61551 16.1683C4.37774 15.9609 4.35493 15.6028 4.56508 15.3681C4.77523 15.1334 5.13668 15.1108 5.37445 15.3171C5.40928 15.348 8.07397 17.5803 13.3145 17.5803C18.5646 17.5803 21.2293 15.3385 21.2558 15.3159C21.4935 15.112 21.8562 15.1334 22.0651 15.3693C22.2741 15.604 22.2513 15.9609 22.0147 16.1671C21.9306 16.2406 20.4836 17.4665 17.6508 18.1896L18.7015 19.6146C18.8096 19.7617 18.9825 19.8482 19.1663 19.8482C19.1723 19.8482 19.1783 19.8482 19.1843 19.8482C20.223 19.8162 24.7791 19.0574 26.4494 16.16C26.4975 16.0747 26.5239 15.9786 26.5239 15.8803C26.5239 10.2964 24.1042 3.83771 22.8637 2.70791ZM9.58104 13.6123C8.47145 13.6123 7.57081 12.5964 7.57081 11.3444C7.57081 10.0925 8.47025 9.07654 9.58104 9.07654C10.6918 9.07654 11.5913 10.0925 11.5913 11.3444C11.5913 12.5964 10.6918 13.6123 9.58104 13.6123ZM17.048 13.6123C15.9384 13.6123 15.0377 12.5964 15.0377 11.3444C15.0377 10.0925 15.9372 9.07654 17.048 9.07654C18.1575 9.07654 19.0582 10.0925 19.0582 11.3444C19.0582 12.5964 18.1575 13.6123 17.048 13.6123Z" fill="white"/>
</svg>
