<svg width="26" height="20" viewBox="0 0 26 20" fill="none" xmlns="http://www.w3.org/2000/svg">
<path d="M25.816 2.79952C24.8847 3.18661 23.8865 3.44651 22.8371 3.56448C23.9082 2.96357 24.7312 2.01243 25.1171 0.880657C24.1169 1.43549 23.0045 1.83917 21.8251 2.05667C20.8801 1.11291 19.5334 0.524902 18.0429 0.524902C15.1802 0.524902 12.8589 2.69629 12.8589 5.37643C12.8589 5.75615 12.9061 6.12665 12.9947 6.4824C8.68686 6.27964 4.86923 4.34788 2.31167 1.41152C1.86473 2.1304 1.61075 2.96357 1.61075 3.85203C1.61075 5.53495 2.5243 7.02064 3.91629 7.89252C3.06574 7.86671 2.26638 7.64736 1.56743 7.28423C1.56743 7.30451 1.56743 7.32478 1.56743 7.34506C1.56743 9.69709 3.35517 11.6565 5.72371 12.1044C5.29056 12.215 4.83182 12.274 4.35929 12.274C4.02458 12.274 3.69972 12.2445 3.38273 12.1855C4.04427 14.1118 5.95801 15.5182 8.22418 15.5569C6.4522 16.8583 4.21753 17.6324 1.78795 17.6324C1.36858 17.6324 0.957085 17.6103 0.553467 17.5642C2.84523 18.943 5.57014 19.7448 8.49785 19.7448C18.0311 19.7448 23.2447 12.3514 23.2447 5.94048C23.2447 5.73034 23.2388 5.51836 23.2309 5.31192C24.2429 4.62806 25.121 3.77277 25.816 2.79952Z" fill="white"/>
</svg>
