<svg width="21" height="22" viewBox="0 0 21 22" fill="none" xmlns="http://www.w3.org/2000/svg">
<path d="M1.32987 12.0108L1.40306 11.8823L5.81617 4.16793C5.88067 4.05499 6.03229 4.06666 6.08108 4.18935C6.81835 6.03564 7.45452 8.33184 7.15649 9.76137C7.02926 10.3495 6.68067 11.1461 6.28849 11.8823C6.23797 11.9894 6.18219 12.0946 6.12292 12.1958C6.09503 12.2426 6.04797 12.2698 5.99742 12.2698H1.45884C1.33683 12.2698 1.26537 12.1218 1.32987 12.0108Z" fill="white"/>
<path d="M21.0001 13.4441V14.6652C21.0001 14.7353 20.9617 14.7976 20.9059 14.8249C20.5643 14.9885 19.3948 15.5883 18.9085 16.344C17.6676 18.274 16.7194 21.0337 14.6 21.0337H5.75803C2.62426 21.0337 0.0847778 18.1864 0.0847778 14.673V14.56C0.0847778 14.4665 0.152737 14.3906 0.236406 14.3906H5.16546C5.26304 14.3906 5.3345 14.4919 5.32581 14.599C5.29093 14.9573 5.35021 15.3235 5.50183 15.6565C5.79464 16.3206 6.40119 16.7355 7.05652 16.7355H9.49666V14.6068H7.08441C6.96068 14.6068 6.88749 14.4471 6.95895 14.3341C6.98507 14.2893 7.01472 14.2426 7.04607 14.19C7.27442 13.8278 7.60034 13.2649 7.92453 12.6242C8.14588 12.1918 8.36024 11.7302 8.53281 11.2667C8.56769 11.183 8.59554 11.0972 8.62343 11.0135C8.67049 10.8655 8.71931 10.7272 8.75416 10.5889C8.78904 10.4721 8.81689 10.3494 8.84478 10.2345C8.92672 9.84105 8.96157 9.42428 8.96157 8.99193C8.96157 8.8225 8.95461 8.64526 8.94067 8.47583C8.93368 8.29081 8.91278 8.10576 8.89184 7.92075C8.8779 7.75716 8.85177 7.5955 8.82388 7.42607C8.78904 7.17873 8.74021 6.93336 8.68443 6.68599L8.66526 6.59253C8.62343 6.42306 8.58858 6.26144 8.53979 6.09201C8.40208 5.56029 8.24349 5.04226 8.07616 4.55732C8.01515 4.3645 7.94543 4.17949 7.8757 3.99448C7.7729 3.71597 7.6683 3.4628 7.57245 3.22323C7.52366 3.11415 7.48182 3.01482 7.43999 2.91356C7.39293 2.79865 7.34414 2.68374 7.29532 2.5747C7.26047 2.49095 7.22037 2.41304 7.19248 2.33513L6.89445 1.7197C6.85261 1.63595 6.92234 1.53662 7.00424 1.56195L8.86921 2.12673H8.87444C8.8779 2.12673 8.87966 2.1287 8.88139 2.1287L9.12714 2.20464L9.39732 2.29036L9.49666 2.32148V1.08285C9.49666 0.484936 9.92542 0 10.4553 0C10.7202 0 10.9607 0.12075 11.1333 0.317439C11.3058 0.514166 11.4139 0.782927 11.4139 1.08285V2.92137L11.6126 2.98366C11.6283 2.98954 11.644 2.99731 11.6579 3.00899C11.7067 3.04989 11.7764 3.11025 11.8653 3.18429C11.935 3.24658 12.01 3.32256 12.1006 3.40047C12.2801 3.56209 12.4945 3.77049 12.7298 4.01006C12.7925 4.07042 12.8536 4.13274 12.9093 4.19507C13.2126 4.51058 13.5525 4.8806 13.8767 5.2896C13.9673 5.40451 14.0562 5.52136 14.1468 5.64404C14.2374 5.7687 14.3333 5.89138 14.417 6.0141C14.5268 6.1777 14.6453 6.34713 14.7481 6.52437C14.7969 6.60811 14.8527 6.6938 14.8998 6.77754C15.0322 7.00149 15.149 7.23329 15.2606 7.46505C15.3076 7.57215 15.3564 7.68899 15.3983 7.80391C15.522 8.11357 15.6196 8.42908 15.6823 8.74459C15.7015 8.81275 15.7155 8.88676 15.7224 8.95299V8.96857C15.7433 9.06203 15.7503 9.16136 15.7573 9.26262C15.7852 9.58594 15.7712 9.90921 15.7085 10.2345C15.6823 10.3728 15.6475 10.5032 15.6057 10.6415C15.5638 10.774 15.522 10.9122 15.468 11.0427C15.3634 11.3134 15.2396 11.5841 15.0932 11.8373C15.0462 11.9308 14.9904 12.0301 14.9346 12.1236C14.8736 12.2229 14.8109 12.3164 14.7551 12.408C14.6784 12.5248 14.5965 12.6475 14.5128 12.7566C14.4379 12.8715 14.3612 12.9864 14.2775 13.0877C14.1608 13.2415 14.0492 13.3876 13.9324 13.5278C13.8627 13.6193 13.7878 13.7128 13.7111 13.7966C13.6362 13.89 13.5594 13.9738 13.4897 14.0517C13.373 14.1822 13.2754 14.2835 13.1934 14.3672L13.0017 14.5639C12.9738 14.5912 12.9372 14.6068 12.8989 14.6068H11.4139V16.7355H13.2823C13.7006 16.7355 14.098 16.5699 14.4187 16.2661C14.5285 16.159 15.0078 15.6955 15.5743 14.9963C15.5934 14.9729 15.6179 14.9554 15.6458 14.9476L20.8066 13.2805C20.9025 13.2493 21.0001 13.3311 21.0001 13.4441Z" fill="white"/>
</svg>
