<svg width="20" height="20" viewBox="0 0 20 20" fill="none" xmlns="http://www.w3.org/2000/svg">
<path d="M5.5535 0.284668C2.48686 0.284668 0 2.68271 0 5.63983V14.2081C0 17.1652 2.48686 19.5632 5.5535 19.5632H14.4391C17.5057 19.5632 19.9926 17.1652 19.9926 14.2081V5.63983C19.9926 2.68271 17.5057 0.284668 14.4391 0.284668H5.5535ZM16.6605 2.42673C17.2736 2.42673 17.7712 2.90655 17.7712 3.49776C17.7712 4.08897 17.2736 4.5688 16.6605 4.5688C16.0474 4.5688 15.5498 4.08897 15.5498 3.49776C15.5498 2.90655 16.0474 2.42673 16.6605 2.42673ZM9.9963 4.5688C13.0629 4.5688 15.5498 6.96684 15.5498 9.92396C15.5498 12.8811 13.0629 15.2791 9.9963 15.2791C6.92966 15.2791 4.4428 12.8811 4.4428 9.92396C4.4428 6.96684 6.92966 4.5688 9.9963 4.5688ZM9.9963 6.71086C9.11257 6.71086 8.26504 7.04938 7.64015 7.65195C7.01526 8.25453 6.6642 9.07179 6.6642 9.92396C6.6642 10.7761 7.01526 11.5934 7.64015 12.196C8.26504 12.7985 9.11257 13.1371 9.9963 13.1371C10.88 13.1371 11.7276 12.7985 12.3525 12.196C12.9773 11.5934 13.3284 10.7761 13.3284 9.92396C13.3284 9.07179 12.9773 8.25453 12.3525 7.65195C11.7276 7.04938 10.88 6.71086 9.9963 6.71086Z" fill="white"/>
</svg>
